<svg width="1000" height="1000" viewBox="0 0 1000 1000" fill="none" xmlns="http://www.w3.org/2000/svg">
<path d="M517.712 90.0378C515.294 85.7334 513.992 76.9149 510.86 71.617C507.168 65.3731 503.556 59.8839 499.866 53.5014C495.231 45.4854 505.054 33.8299 513.594 38.4245C523.277 44.666 532.345 65.3134 535.539 75.3944C543.988 98.7296 544.64 126.936 542.281 151.544C546.897 146.564 551.672 141.546 556.906 137.212C570.883 125.639 581.001 119.577 592.1 104.511C594.842 100.14 597.041 96.1587 599.161 91.3355C602.53 83.671 601.347 69.0797 611.273 66.5936C617.631 65.0008 621.471 68.6392 624.361 73.8906C624.771 83.8545 618.146 107.359 611.526 114.54L611.184 115.151C600.739 133.596 584.501 142.113 569.8 155.333C541.973 180.352 530.505 218.848 540.102 255.015C544.6 271.612 554.541 286.129 569.788 294.479C578.838 299.434 590.935 301.62 601.075 305.922C625.216 316.428 637.598 330.563 665.91 321.732C689.486 314.377 705.994 298.559 718.045 277.396C732.275 252.409 729.291 233.475 728.77 207.116C728.116 205.73 728.04 197.819 727.922 195.723C727.021 179.595 729.549 163.955 736.935 149.49C739.589 143.828 742.551 138.968 746.722 134.325C751.112 129.44 757.825 128.716 762.327 134.055C764.675 136.895 765.49 140.701 764.513 144.252C763.692 147.351 760.547 150.135 759.034 152.85C753.315 163.123 750.585 172.781 749.914 184.339C749.886 204.387 752.161 222.255 752.068 242.502C759.125 233.812 771.441 216.914 780.11 210.483C779.606 214.428 774.053 216.297 773.492 218.844C777.27 221.54 778.775 219.008 781.483 222.403L784.542 221.561C785.918 222.751 786.249 222.882 786.76 224.656C786.458 226.015 786.317 226.648 786.167 228.059C787.038 229.39 787.061 229.274 788.507 230.015C789.593 229.15 789.256 229.494 790.019 228.335C791.429 227.928 792.418 227.54 793.872 227.426C781.49 239.675 764.002 261.829 756.568 277.555C783.867 271.198 801.635 272.416 828.458 280.295C843.513 282.755 858.899 284.745 873.593 277.694C877.62 275.759 883.112 271.325 887.42 270.707C890.833 270.221 894.234 271.675 896.243 274.477C906.829 289.207 878.679 300.05 868.559 301.496C825.964 312.181 792.363 278.411 743.631 308.641C730.083 316.966 718.747 328.441 710.587 342.088C702.57 355.367 696.779 373.871 700.762 389.232C703.102 398.246 711.232 412.616 715.178 422.386C730.483 460.278 733.038 491.582 728.629 531.523C716.292 529.727 722.889 514.807 715.517 506.029C712.878 502.888 707.473 504.002 703.184 503.693C704.304 415.398 642.697 338.694 556.239 320.738C469.782 302.783 382.725 348.616 348.596 430.054C341.885 425.717 337.484 421.097 331.666 415.803L330.562 416.586C328.189 416.516 325.978 415.886 323.655 415.35C330.807 398.641 337.837 391.911 335.716 372.375C333.406 351.107 320.569 331.107 304.21 317.903C283.468 301.082 256.582 293.81 230.189 297.886C219.717 299.424 209.875 302.219 199.049 303.542C180.829 305.466 158.848 301.447 143.731 290.74C133.989 283.84 139.449 268.264 152.138 272.16C157.052 273.749 161.121 276.987 166.028 278.702C189.449 286.884 212.202 279.375 235.417 275.392C242.297 274.213 251.103 274.705 258.328 274.981C245.299 264.57 235.046 256.705 223.605 244.466C206.359 226.019 187.324 192.711 188.326 167.105C191.493 162.003 193.453 160.908 198.857 159.038C214.088 164.159 209.679 174.014 214.099 187.115C226.409 223.612 255.124 247.62 288.117 265.171C287.301 262.418 286.639 259.369 286.056 256.548C284.088 247.025 281.887 236.81 282.094 227.067C282.62 202.481 288.436 176.337 275.098 153.828C273.432 151.013 271.402 148.357 270.067 145.371C267.541 139.662 269.647 133.067 275.799 130.98C285.769 127.722 292.046 138.269 295.947 145.609C305.28 163.163 306.86 183.162 305.723 202.668C305.223 211.23 304.396 219.755 304.588 228.327C304.841 236.968 306.748 248.812 309.189 257.148C316.278 281.346 334.55 303.719 356.598 315.759C370.398 323.295 391.225 328.008 406.024 321.289C413.761 317.776 421.972 312.289 429.915 308.557C440.075 303.785 449.233 300.88 459.986 298.021C473.786 294.35 483.539 283.407 490.068 271.131C496.971 258.16 499.824 243.059 499.233 228.386C498.379 204.098 486.4 180.421 467.883 164.77C453.925 152.97 438.642 143.817 427.533 128.811C420.666 119.535 415.818 110.157 412.497 99.0336C409.229 88.0872 408.045 79.3701 421.364 76.2839C431.431 78.9218 432.039 84.2788 433.822 93.38C439.465 122.191 467.134 135.006 487.172 152.602C497.178 161.387 504.777 173.711 511.638 185.265C513.125 178.544 515.425 171.251 516.986 164.17C522.731 138.133 522.75 116.109 517.712 90.0378Z" fill="url(#paint0_linear_113_2)"/>
<path d="M728.771 207.116C728.117 205.73 728.041 197.819 727.922 195.723C727.022 179.595 729.549 163.955 736.935 149.49C739.589 143.828 742.551 138.968 746.722 134.325C751.112 129.441 757.825 128.716 762.327 134.055C764.676 136.895 765.49 140.701 764.513 144.252C763.692 147.351 760.547 150.135 759.034 152.85C753.315 163.123 750.585 172.781 749.914 184.339C748.218 186.558 748.009 197.824 749.351 199.94L748.77 200.951C748.543 200.509 748.315 200.066 748.089 199.623C742.735 202.721 738.88 204.948 733.984 208.688L733.473 209.081C730.853 207.918 733.062 207.131 730.984 207.793L730.745 209.119C730.332 207.318 729.861 205.522 729.46 203.728L728.912 204.092C728.931 205.289 729.041 205.958 728.771 207.116Z" fill="#80D9D3"/>
<path d="M592.1 104.511C594.843 100.14 597.041 96.1587 599.161 91.3355C602.53 83.671 601.347 69.0797 611.273 66.5936C617.632 65.0008 621.471 68.6392 624.361 73.8906C624.771 83.8545 618.146 107.359 611.526 114.54C609.465 113.845 609.931 113.675 608.406 111.326L606.864 113.798C606.359 101.405 599.473 110.594 594.438 108.461L594.117 106.994L592.8 108.633L592.001 108.719C591.653 107.102 593.568 107.349 593.497 104.83L592.1 104.511Z" fill="#80D9D3"/>
<path d="M517.712 90.0378C515.294 85.7334 513.992 76.9149 510.86 71.617C507.168 65.3731 503.556 59.8839 499.866 53.5014C495.231 45.4854 505.054 33.8299 513.594 38.4245C523.277 44.666 532.345 65.3134 535.539 75.3944L534.554 75.0398C532.366 70.0676 530.326 63.7041 527.767 59.1879C527.853 62.1972 529.058 62.6978 528.463 64.9084L527.632 65.3999C527.307 64.2558 527.421 64.617 527.575 63.3339L526.638 62.0375C526.419 64.4776 526.442 66.102 525.471 68.3603L524.708 68.7651C523.933 68.4322 522.959 67.7868 522.478 68.0955C520.469 69.3837 515.936 75.1064 515.214 77.1944C514.404 79.5351 519.718 88.3619 517.712 90.0378Z" fill="#70CFD4"/>
<path d="M828.458 280.295C843.513 282.755 858.899 284.745 873.593 277.694C877.62 275.759 883.112 271.325 887.42 270.707C890.833 270.221 894.234 271.675 896.243 274.477C906.829 289.207 878.679 300.05 868.559 301.496C867.831 301.145 868.152 301.399 867.627 300.704C870.947 300.293 877.926 298.099 880.707 296.257C880.137 295.802 879.96 295.797 879.27 295.601L879.329 293.84L877.886 293.808L877.648 293.055L878.939 292.084L879.068 291.059C872.745 285.996 878.141 287.93 875.54 283.496C874.006 282.439 871.608 282.886 869.348 282.637C869.222 281.559 869.304 281.808 868.933 280.791C855.58 284.023 848.002 284.588 833.971 282.148C832.249 281.848 828.884 281.529 827.511 280.913L828.458 280.295Z" fill="url(#paint1_linear_113_2)"/>
<path d="M817.669 280.006C817.783 280.186 818.133 281.66 818.201 281.911C820.273 281.156 821.897 280.388 823.825 281.2L823.766 282.424L822.226 283.063C820.057 282.924 817.302 283.245 815.652 281.626L816.066 280.561L817.669 280.006Z" fill="#80D9D3"/>
<path d="M381.609 484.018C384.451 486.81 390.314 526.269 393.569 531.911C394.902 534.219 395.368 535.89 398.368 535.626C402.221 532.877 408.828 507.993 410.364 502.084C416.712 502.377 426.645 502.286 432.934 502.088C432.909 509.636 433.48 517.174 434.649 524.632C439.811 556.288 463.254 582.425 493.63 592.103C503.016 595.531 515.124 595.333 523.138 601.94C540.119 615.938 542.706 636.771 529.482 653.607C524.375 659.387 514.491 666.739 506.421 666.345C434.811 662.845 371.62 607.322 356.668 537.522C354.042 525.263 353.09 515.518 352.244 503.217C359.563 503.229 366.879 503.172 374.196 503.046C376.765 497.911 379.295 489.769 381.609 484.018Z" fill="#48BDD9"/>
<path d="M501.783 336.692C509.83 335.616 516.845 338.799 523.079 343.599C534.364 352.287 538.448 364.639 540.085 378.198C524.876 378.417 509.665 378.548 494.454 378.59L488.199 387.654C486.199 379.268 484.273 370.772 482.091 362.432C481.273 359.295 480.106 355.947 476.604 355.588C471.113 358.027 465.526 374.472 462.919 380.645C458.011 380.384 449.706 379.354 445.178 381.331C442.556 382.476 442.64 386.424 444.613 388.506C449.514 390.175 462.986 389.265 468.792 389.04C470.948 384.791 473.281 379.426 475.315 375.038C477.625 381.489 481.528 404.554 487.703 405.744C491.708 404.095 497.068 391.238 499.07 387.078C509.383 387.846 529.543 387.696 539.88 387.251C537.874 402.991 529.6 419.17 513.191 423.881C507.397 425.324 500.817 425.08 495.106 426.702C460.822 436.438 441.784 460.061 433.817 493.556C426.938 493.016 411.87 492.974 405.218 493.592C401.843 498.753 399.843 504.561 397.585 510.297C395.1 497.563 391.927 484.753 389.33 471.923C389.052 470.552 388.756 469.185 388.44 467.822C387.737 464.826 387.045 463.084 384.387 461.438C383.421 461.371 383.039 461.206 382.138 461.653C377.78 463.818 370.482 488.227 368.393 493.997C362.727 494.219 357.986 494.221 352.315 494.092C353.834 467.567 359.547 449.837 370.531 426.057C383.307 425.892 395.847 426.417 408.746 426.044C411.929 420.867 413.313 416.647 415.44 410.953C417.606 422.073 421.433 434.035 424.155 445.124C424.722 447.434 425.864 449.364 427.758 450.831C433.923 451.873 441.03 427.261 442.817 421.706C447.161 421.563 467.551 424.073 459.969 414.008C456.68 412.202 442.395 412.839 437.904 412.875C434.76 417.932 432.06 424.36 429.573 429.839C428.632 420.673 425.76 412.599 423.237 403.803C421.921 399.213 421.961 392.917 418.279 389.782C413.376 388.504 411.414 394.814 409.851 398.535C407.244 404.753 405.045 411.204 403.104 417.66C394.634 417.105 383.381 417.386 374.712 417.398C404.505 369.242 445.938 343.987 501.783 336.692Z" fill="#48BDD9"/>
<path d="M534.655 336.354C604.739 343.747 658.019 387.913 678.268 455.132C671.758 449.09 665.414 445.097 657.608 440.932C628.425 427.481 600.45 439.47 581.115 463.063C573.138 447.706 563.547 441.05 552.364 428.837C538.448 413.641 552.068 402.388 552.737 384.384C553.575 361.852 548.3 352.523 534.655 336.354Z" fill="#48BDD9"/>
<path d="M672.218 564.299L672.657 565.124C652.359 615.873 604.57 655.655 550.674 664.904C545.562 665.78 540.286 666.32 535.127 666.898C543.231 658.733 547.52 652.598 549.908 641.221C552.317 624.803 548.729 615.982 541.946 601.712C566.598 603.008 586.642 611.708 595.368 636.124C601.585 622.292 605.707 612.311 607.051 596.911C634.811 594.478 652.33 581.925 672.218 564.299Z" fill="#48BDD9"/>
<path d="M536.165 537.871C541.459 538.947 546.687 548.227 556.21 549.94C564.376 551.765 572.758 551.048 579.682 545.991C587.682 540.147 592.486 533.369 598.773 544.786C596.764 547.909 596.045 548.847 593.52 551.563C590.499 554.309 587.467 556.453 583.788 558.257C572.961 563.478 560.503 564.191 549.153 560.238C541.009 557.417 519.218 545.301 536.165 537.871Z" fill="#0157B0"/>
<path d="M609.231 490.297C619.243 490.7 611.408 503.309 626.988 507.607C640.798 504.048 637.081 491.409 644.334 490.025C649.007 492.295 648.34 497.803 647.224 501.795C643.678 511.662 636.701 517.685 625.845 517.141C615.452 516.62 605.043 506.818 605.575 496.109C605.716 493.263 607.206 491.991 609.231 490.297Z" fill="#0157B0"/>
<path d="M482.837 490.316C488.729 490.662 487.862 496.668 490.349 500.9C493.261 505.854 495.231 506.417 500.362 508.128C513.78 504.206 510.009 490.932 517.385 490.896C523.128 493.679 521.562 497.702 520.094 502.535C518.545 506.143 516.938 509.096 514.119 511.862C510.391 515.544 505.318 517.533 500.081 517.362C486.881 517.054 471.495 499.413 482.837 490.316Z" fill="#0157B0"/>
<path d="M193.572 490.911C184.67 485.179 176.314 478.926 168.952 471.28C152.265 453.953 140.481 431.413 118.444 420.084C113.093 417.411 106.672 414.77 100.792 413.453C95.0726 412.173 89.6682 413.145 86.931 406.141C85.8855 403.394 85.98 400.343 87.1937 397.666C88.3726 394.993 90.5743 392.905 93.3057 391.867C98.7091 389.854 106.133 392.483 111.424 394.057C165.937 410.274 168.047 455.639 214.74 476.246C234.156 484.816 259.622 485.656 279.424 477.82C312.476 464.744 311.474 443.497 323.656 415.35C325.978 415.886 328.189 416.516 330.563 416.586L331.666 415.803C337.485 421.097 341.886 425.717 348.596 430.054C320.945 496.037 333.938 572.058 381.934 625.113C429.932 678.166 504.278 698.683 572.691 677.754C641.104 656.826 691.248 598.229 701.351 527.402C702.471 519.548 703.083 511.628 703.184 503.693C707.473 504.001 712.878 502.888 715.518 506.029C722.889 514.807 716.292 529.727 728.629 531.523L728.146 533.677C723.279 572.434 701.653 619.636 673.71 647.115C687.769 673.014 703.189 696.126 736.978 693.773C757.279 692.36 768.461 679.919 780.937 665.345C779.112 663.301 777.79 661.71 776.298 659.387C770.712 650.645 768.83 640.037 771.066 629.906C778.1 597.725 811.796 586.75 830.323 616.974C836.948 627.78 837.596 638.102 834.536 650.189C841.863 644.048 844.585 637.453 853.484 634.039C867.313 639.387 863.315 648.115 855.228 656.988C847.768 665.168 837.859 670.708 826.984 672.775C819.851 674.083 817.233 673.813 809.918 676.233C799.399 679.714 798.252 682.315 790.448 690.288C770.368 710.809 743.191 721.678 714.433 714.415C687.495 707.611 669.714 687.554 655.957 664.157C637.237 682.765 609.59 696.001 584.839 704.204C583.271 706.566 582.455 707.187 580.389 709.014C581.938 748.739 576.326 801.678 609.161 828.716C633.345 848.629 658.079 868.085 685.14 884.028C693.115 888.729 696.513 889.838 698.9 899.127C696.161 908.049 684.575 922.473 679.463 930.792C675.564 937.136 663.798 958.454 656.402 958.148C623.564 956.794 651.537 909.452 661.246 897.134C638.045 880.792 615.984 864.845 594.528 846.136C569.997 824.746 563.29 804.229 560.784 772.847C559.111 751.904 558.429 731.379 557.419 710.467C541.932 716.077 515.837 715.128 499.463 713.531C496.497 718.982 490.731 726.153 487.229 732.218C477.375 749.279 467.577 766.611 458.816 784.233C445.071 811.881 439.432 836.254 432.21 865.558C427.214 885.245 422.668 905.045 418.569 924.937C416.514 934.96 416.079 955.077 407.594 960.735C403.942 963.171 399.409 963.157 395.295 961.572C377.284 954.638 349.871 950.435 337.409 934.944C333.042 929.378 338.531 919.235 344.867 917.14C359.839 912.191 380.493 922.119 394.755 927.688C396.995 912.326 401.407 898.245 404.309 883.349C412.423 841.689 422.406 806.138 441.223 768.043C447.174 755.98 453.552 744.132 460.345 732.522C462.558 728.714 472.141 712.879 473.341 709.585C472.073 708.562 460.337 705.767 457.573 704.984C427.463 696.45 396.85 678.894 374.544 656.972C356.664 688.225 324.757 714.634 287.133 710.704C260.668 707.942 243.32 695.339 226.42 675.769C221.19 675.803 217.538 674.444 212.517 673.577C202.296 671.809 192.433 670.792 183.144 665.668C176.746 662.138 166.645 654.083 164.718 646.735C163.983 643.963 164.398 641.01 165.87 638.548C172.644 627.459 185.526 644.811 191.259 649.054L191.911 649.529C191.037 646.107 189.554 640.999 189.321 637.596C187.556 620.805 203.527 599.735 221.282 599.535C253.778 599.168 267.453 641.269 247.555 664.259C252.974 670.493 258.055 675.828 265.111 680.315C277.354 688.117 292.23 690.642 306.362 687.322C331.36 681.45 345.634 660.349 358.375 639.794C343.474 624.729 326.4 595.2 318.968 575.048C315.573 566.575 313.959 557.06 309.305 549.162C296.772 527.896 270.28 517.47 246.73 516.2C220.453 514.196 190.862 527.736 173.646 547.849C150.583 574.799 135.279 600.039 96.4201 606.788C91.1028 604.767 86.3317 601.335 86.3749 595.109C86.4338 586.668 99.3992 584.016 105.863 581.683C128.911 573.364 140.709 552.647 155.165 534.527C159.831 528.736 167.186 522.284 172.858 517.105C144.378 519.301 112.073 514.533 85.3566 504.822C79.5998 502.493 69.2148 499.957 66.8471 493.461C63.8195 485.153 69.653 480.668 76.4188 478.272C83.8275 480.326 93.3739 484.968 101.843 487.542C124.531 494.293 148.311 496.584 171.871 494.288C178.602 493.575 186.8 492.042 193.572 490.911Z" fill="url(#paint2_linear_113_2)"/>
<path d="M193.572 490.911C184.67 485.179 176.314 478.926 168.952 471.28C152.265 453.953 140.481 431.413 118.444 420.084C113.093 417.411 106.672 414.77 100.792 413.453C95.0726 412.173 89.6682 413.145 86.931 406.141C85.8855 403.394 85.98 400.343 87.1937 397.666C88.3726 394.993 90.5743 392.905 93.3057 391.867C98.7091 389.854 106.133 392.483 111.424 394.057C165.937 410.274 168.047 455.639 214.74 476.246C234.156 484.816 259.622 485.656 279.424 477.82C312.476 464.744 311.474 443.497 323.656 415.35C325.978 415.886 328.189 416.516 330.563 416.586L331.666 415.803C337.485 421.097 341.886 425.717 348.596 430.054C320.945 496.037 333.938 572.058 381.934 625.113C429.932 678.166 504.278 698.683 572.691 677.754C641.104 656.826 691.248 598.229 701.351 527.402C702.471 519.548 703.083 511.628 703.184 503.693C707.473 504.001 712.878 502.888 715.518 506.029C722.889 514.807 716.292 529.727 728.629 531.523L728.146 533.677C723.279 572.434 701.653 619.636 673.71 647.115C687.769 673.014 703.189 696.126 736.978 693.773C757.279 692.36 768.461 679.919 780.937 665.345C779.112 663.301 777.79 661.71 776.298 659.387C770.712 650.645 768.83 640.037 771.066 629.906C778.1 597.725 811.796 586.75 830.323 616.974C836.948 627.78 837.596 638.102 834.536 650.189C841.863 644.048 844.585 637.453 853.484 634.039C867.313 639.387 863.315 648.115 855.228 656.988C847.768 665.168 837.859 670.708 826.984 672.775C819.851 674.083 817.233 673.813 809.918 676.233C799.399 679.714 798.252 682.315 790.448 690.288C770.368 710.809 743.191 721.678 714.433 714.415C687.495 707.611 669.714 687.554 655.957 664.157C637.237 682.765 609.59 696.001 584.839 704.204C583.271 706.566 582.455 707.187 580.389 709.014C581.938 748.739 576.326 801.678 609.161 828.716C633.345 848.629 658.079 868.085 685.14 884.028C693.115 888.729 696.513 889.838 698.9 899.127C696.161 908.049 684.575 922.473 679.463 930.792C675.564 937.136 663.798 958.454 656.402 958.148C623.564 956.794 651.537 909.452 661.246 897.134C638.045 880.792 615.984 864.845 594.528 846.136C569.997 824.746 563.29 804.229 560.784 772.847C559.111 751.904 558.429 731.379 557.419 710.467C541.932 716.077 515.837 715.128 499.463 713.531C496.497 718.982 490.731 726.153 487.229 732.218C477.375 749.279 467.577 766.611 458.816 784.233C445.071 811.881 439.432 836.254 432.21 865.558C427.214 885.245 422.668 905.045 418.569 924.937C416.514 934.96 416.079 955.077 407.594 960.735C403.942 963.171 399.409 963.157 395.295 961.572C377.284 954.638 349.871 950.435 337.409 934.944C333.042 929.378 338.531 919.235 344.867 917.14C359.839 912.191 380.493 922.119 394.755 927.688C396.995 912.326 401.407 898.245 404.309 883.349C412.423 841.689 422.406 806.138 441.223 768.043C447.174 755.98 453.552 744.132 460.345 732.522C462.558 728.714 472.141 712.879 473.341 709.585C472.073 708.562 460.337 705.767 457.573 704.984C427.463 696.45 396.85 678.894 374.544 656.972C356.664 688.225 324.757 714.634 287.133 710.704C260.668 707.942 243.32 695.339 226.42 675.769C221.19 675.803 217.538 674.444 212.517 673.577C202.296 671.809 192.433 670.792 183.144 665.668C176.746 662.138 166.645 654.083 164.718 646.735C163.983 643.963 164.398 641.01 165.87 638.548C172.644 627.459 185.526 644.811 191.259 649.054L191.911 649.529C191.037 646.107 189.554 640.999 189.321 637.596C187.556 620.805 203.527 599.735 221.282 599.535C253.778 599.168 267.453 641.269 247.555 664.259C252.974 670.493 258.055 675.828 265.111 680.315C277.354 688.117 292.23 690.642 306.362 687.322C331.36 681.45 345.634 660.349 358.375 639.794C343.474 624.729 326.4 595.2 318.968 575.048C315.573 566.575 313.959 557.06 309.305 549.162C296.772 527.896 270.28 517.47 246.73 516.2C220.453 514.196 190.862 527.736 173.646 547.849C150.583 574.799 135.279 600.039 96.4201 606.788C91.1028 604.767 86.3317 601.335 86.3749 595.109C86.4338 586.668 99.3992 584.016 105.863 581.683C128.911 573.364 140.709 552.647 155.165 534.527C159.831 528.736 167.186 522.284 172.858 517.105C144.378 519.301 112.073 514.533 85.3566 504.822C79.5998 502.493 69.2148 499.957 66.8471 493.461C63.8195 485.153 69.653 480.668 76.4188 478.272C83.8275 480.326 93.3739 484.968 101.843 487.542C124.531 494.293 148.311 496.584 171.871 494.288C178.602 493.575 186.8 492.042 193.572 490.911Z" fill="url(#paint3_linear_113_2)" fill-opacity="0.2"/>
<path d="M321.5 422C323 415.5 325.5 411.333 328 406.5C338.333 407.667 358.3 411.1 355.5 415.5C352.7 419.9 347.5 432.167 345.5 437.5C337.333 432.5 321.373 422.551 321.5 422Z" fill="url(#paint4_linear_113_2)"/>
<path d="M221.601 620.238C237.145 620.972 242.029 647.041 223.637 653.292C218.048 652.149 213.622 648.742 211.375 643.453C209.516 639.136 209.505 634.246 211.348 629.921C213.439 625.005 216.787 622.219 221.601 620.238Z" fill="#F9F8F8"/>
<path d="M802.241 620.343C818.104 622.706 823.133 645.027 805.743 653.32C791.522 655.94 785.197 628.552 802.241 620.343Z" fill="#F9F8F8"/>
<path d="M780.11 210.483C798.433 192.963 830.169 175.374 855.667 175.5C867.817 181.655 863.56 195.085 851.612 197.051C828.15 200.914 811.275 211.844 793.872 227.426C792.418 227.54 791.429 227.928 790.02 228.335C789.256 229.494 789.593 229.15 788.507 230.015C787.062 229.274 787.039 229.39 786.167 228.059C786.317 226.648 786.458 226.015 786.76 224.656C786.25 222.882 785.918 222.751 784.543 221.561L781.484 222.403C778.775 219.008 777.271 221.54 773.492 218.844C774.053 216.297 779.606 214.428 780.11 210.483Z" fill="#80D9D3"/>
<defs>
<linearGradient id="paint0_linear_113_2" x1="338.389" y1="474.5" x2="688.814" y2="106.102" gradientUnits="userSpaceOnUse">
<stop stop-color="#0C69BB"/>
<stop offset="1" stop-color="#84E3D9"/>
</linearGradient>
<linearGradient id="paint1_linear_113_2" x1="894" y1="276" x2="863" y2="293" gradientUnits="userSpaceOnUse">
<stop stop-color="#80D9D3"/>
<stop offset="1" stop-color="#83E2D9"/>
</linearGradient>
<linearGradient id="paint2_linear_113_2" x1="694" y1="586.5" x2="563" y2="797.5" gradientUnits="userSpaceOnUse">
<stop stop-color="#46A5CA"/>
<stop offset="1" stop-color="#0054B5"/>
</linearGradient>
<linearGradient id="paint3_linear_113_2" x1="343" y1="549" x2="679.131" y2="421.911" gradientUnits="userSpaceOnUse">
<stop stop-color="#0041AA"/>
<stop offset="1" stop-color="#43A1C9"/>
</linearGradient>
<linearGradient id="paint4_linear_113_2" x1="344" y1="409" x2="337.5" y2="423" gradientUnits="userSpaceOnUse">
<stop stop-color="#1976BF"/>
<stop offset="1" stop-color="#2D85C1"/>
</linearGradient>
</defs>
</svg>
